<svg width="46" height="42" viewBox="0 0 46 42" fill="none" xmlns="http://www.w3.org/2000/svg">
<path d="M22.9688 22.2686L18.8281 9.84668C18.5938 9.14355 18.9062 8.44043 19.6094 8.28418L24.375 6.64355L27.0312 14.3779L31.7188 12.8154L29.1406 5.08105L33.9062 3.51855C34.6094 3.28418 35.3125 3.59668 35.4688 4.2998L40.2344 18.4404C40.4688 19.0654 40.0781 19.7686 39.4531 20.0029L26.7969 24.2217C25.625 23.3623 24.375 22.6592 22.9688 22.2686ZM44.9219 26.0967C45.1562 26.7217 44.7656 27.4248 44.1406 27.6592L27.4219 33.2061C27.3438 37.7373 23.2812 41.3311 18.5938 40.4717C15.5469 39.9248 13.0469 37.3467 12.5781 34.2998C12.1094 31.4092 13.3594 28.8311 15.3906 27.1904L8.125 5.5498H1.25C0.546875 5.5498 0 5.00293 0 4.2998V1.7998C0 1.1748 0.546875 0.549805 1.25 0.549805H10C11.0156 0.549805 12.0312 1.25293 12.3438 2.26855L20.0781 25.6279C22.4219 25.6279 24.5312 26.7998 25.8594 28.5186L42.5 22.8936C43.2031 22.7373 43.9062 23.0498 44.1406 23.6748L44.9219 26.0967ZM20 36.7998C22.0312 36.7998 23.75 35.1592 23.75 33.0498C23.75 31.0186 22.0312 29.2998 20 29.2998C17.8906 29.2998 16.25 31.0186 16.25 33.0498C16.25 35.1592 17.8906 36.7998 20 36.7998Z" fill="#71BE00"/>
</svg>
