<svg width="50" height="32" viewBox="0 0 50 32" fill="none" xmlns="http://www.w3.org/2000/svg">
<path d="M33.9062 0.549805C34.6094 0.549805 35.2344 0.862305 35.7031 1.33105L39.9219 5.5498V20.7061C39.7656 20.4717 39.5312 20.3154 39.375 20.0811L27.9688 10.8623L30 8.9873C30.5469 8.51855 30.5469 7.7373 30.0781 7.26855C29.6094 6.72168 28.8281 6.72168 28.2812 7.19043L22.1094 12.8936C22.0312 12.8936 22.0312 12.8936 22.0312 12.8936C20.7031 14.0654 18.6719 13.7529 17.6562 12.6592C16.5625 11.4873 16.5625 9.53418 17.8125 8.28418L25.5469 1.25293C26.0156 0.78418 26.5625 0.549805 27.1875 0.549805H33.9062ZM42.5 5.62793H50V25.6279H45C43.5938 25.6279 42.5 24.4561 42.5 23.1279V5.62793ZM46.25 23.1279C46.875 23.1279 47.5 22.5029 47.5 21.8779C47.5 21.1748 46.875 20.6279 46.25 20.6279C45.5469 20.6279 45 21.1748 45 21.8779C45 22.5029 45.5469 23.1279 46.25 23.1279ZM0 25.5498V5.62793H7.5V23.0498C7.5 24.4561 6.32812 25.5498 5 25.5498H0ZM3.75 20.6279C3.04688 20.6279 2.5 21.1748 2.5 21.8779C2.5 22.5029 3.04688 23.1279 3.75 23.1279C4.375 23.1279 5 22.5029 5 21.8779C5 21.1748 4.375 20.6279 3.75 20.6279ZM37.7344 22.0342C38.8281 22.8936 38.9844 24.4561 38.125 25.5498L37.4219 26.4873C36.4844 27.5811 34.9219 27.7373 33.9062 26.8779L33.4375 26.4873L31.0156 29.5342C30 30.7842 28.125 30.9404 26.875 29.9248L25.5469 28.7529H25.4688C23.75 30.8623 20.625 31.2529 18.4375 29.4561L11.4062 23.0498H10V5.5498L14.2188 1.33105C14.6875 0.862305 15.3125 0.549805 16.0156 0.549805H22.5781L16.1719 6.40918C13.9062 8.51855 13.75 12.1123 15.7812 14.3779C17.8906 16.6436 21.4062 16.8779 23.75 14.6904L26.0938 12.5811L37.7344 22.0342Z" fill="#71BE00"/>
</svg>
