<svg width="40" height="39" viewBox="0 0 40 39" fill="none" xmlns="http://www.w3.org/2000/svg">
<path d="M39.375 19.5498C39.375 30.2529 30.625 38.9248 20 38.9248C9.29688 38.9248 0.625 30.2529 0.625 19.5498C0.625 8.9248 9.29688 0.174805 20 0.174805C30.625 0.174805 39.375 8.9248 39.375 19.5498ZM17.7344 29.8623L32.1094 15.4873C32.5781 15.0186 32.5781 14.1592 32.1094 13.6904L30.3125 11.9717C29.8438 11.4248 29.0625 11.4248 28.5938 11.9717L16.875 23.6904L11.3281 18.2217C10.8594 17.6748 10.0781 17.6748 9.60938 18.2217L7.8125 19.9404C7.34375 20.4092 7.34375 21.2686 7.8125 21.7373L15.9375 29.8623C16.4062 30.3311 17.2656 30.3311 17.7344 29.8623Z" fill="#71BE00"/>
</svg>
